# xmcd CD database file
#
# Track frame offsets:
#	150
#	34573
#	59865
#	90595
#	107313
#	132675
#	156519
#	182445
#	204990
#	230732
#	255449
#
# Disc length: 3827 seconds
#
# Revision: 0
# Processed by: cddbd v1.5.2PL0 Copyright (c) Steve Scherf et al.
# Submitted via: CDex 1.81
#
DISCID=930ef10b
DTITLE=Celebrates 55 Years of Blues, Live - Delmark Records
DYEAR=2009
DGENRE=Blues
TTITLE0=Zora Young - Til The Fat Lady Sings
TTITLE1=Jimmy Johnson - Cold, Cold Feeling
TTITLE2=Jimmy Johnson - You Don't Know What Love Is
TTITLE3=Aaron Moore - Wading In Deep Water
TTITLE4=Little Arthur Duncan - Pretty Girls Everywhere
TTITLE5=Lurrie Bell - Don't You Lie To Me
TTITLE6=Shirley Johnson - As The Years Go Passing By
TTITLE7=Eddie Shaw - For You My Love
TTITLE8=Eddie Shaw - Sun Is Shining
TTITLE9=Tail Dragger - Tend To Your Business
TTITLE10=Tail Dragger - My Woman Is Gone
EXTD=YEAR: 2009
EXTT0=
EXTT1=
EXTT2=
EXTT3=
EXTT4=
EXTT5=
EXTT6=
EXTT7=
EXTT8=
EXTT9=
EXTT10=
PLAYORDER=
